# xmcd CD database file
#
# Track frame offsets:
#	150
#	37450
#	72595
#	100320
#	128795
#	151145
#	171727
#	199475
#	227035
#
# Disc length: 3260 seconds
#
# Revision: 0
# Processed by: cddbd v1.4PL0 Copyright (c) Steve Scherf et al.
# Submitted via: CDex 1.50
#
DISCID=8b0cba09
DTITLE=David Torkanowsky - steppin out
DYEAR=1900
DGENRE=Jazz
TTITLE0=steppin out
TTITLE1=the conflict of colour
TTITLE2=a love song
TTITLE3=spring can really...
TTITLE4=big greaze
TTITLE5=melody for jaco
TTITLE6=has anybody heard...
TTITLE7=patrocenio
TTITLE8=dance farewell
EXTD=
EXTT0=
EXTT1=
EXTT2=
EXTT3=
EXTT4=
EXTT5=
EXTT6=
EXTT7=
EXTT8=
PLAYORDER=
